# File created by Blade
# Date/Time:  Thu Sep 25 18:58:07 2014
# Frame Rate: 120.000 fps
#------------------------------------------------------
:FULLY-SPECIFIED
:DEGREES
2050
root 1.658594 32.782775 1.229523 8.462001 2.788406 0.316278
Spine -9.531600 5.369500 -1.320030
Head -10.724970 -9.134968 11.695263
LeftShoulder -9.402618 21.331144 9.940357
LeftArm 18.901132 -2.213896 -62.321110
LeftForeArm 4.363071 -0.000000 17.975241
LeftHand -23.312162 -0.000000 -12.207206
LeftHandThumb1 -26.253704 0.000000 33.147579
RightShoulder -18.083455 12.091175 -17.530906
RightArm -9.996022 -3.879128 62.727396
RightForeArm -23.559329 -0.000000 14.187239
RightHand -3.944239 -0.000000 18.587568
RightHandThumb1 -24.326973 -0.000000 -32.862282
LeftUpLeg -3.036369 9.448024 3.119030
LeftLeg -3.111510 -0.000000 0.000000
LeftFoot -5.808440 -4.755163 -17.693119
LeftToeBase 8.595956 -0.000000 -0.000000
RightUpLeg -2.574366 -11.799068 -6.696572
RightLeg -0.463553 -0.000000 0.000000
RightFoot -5.032685 -2.021618 3.828947
RightToeBase -2.942645 -0.000000 0.000000
2051
root 1.653320 32.783277 1.227314 8.464236 2.743776 0.290751
Spine -9.532501 5.349559 -1.296669
Head -10.735916 -9.081010 11.721149
LeftShoulder -9.376720 21.230255 10.068385
LeftArm 18.956544 -2.719395 -61.830734
LeftForeArm 4.427177 0.000000 17.875581
LeftHand -23.229396 0.000000 -12.384442
LeftHandThumb1 -26.253704 0.000000 33.147579
RightShoulder -18.090840 12.174885 -17.673901
RightArm -9.884846 -3.624886 61.951022
RightForeArm -23.460787 -0.000000 14.260962
RightHand -4.040460 -0.000000 18.621549
RightHandThumb1 -24.326973 -0.000000 -32.862282
LeftUpLeg -3.069961 9.592013 3.143089
LeftLeg -3.057767 -0.000000 0.000000
LeftFoot -5.801701 -4.871498 -17.629092
LeftToeBase 8.568146 -0.000000 -0.000000
RightUpLeg -2.592959 -11.819951 -6.660047
RightLeg -0.469357 -0.000000 0.000000
RightFoot -5.015668 -1.969598 3.808935
RightToeBase -2.922930 -0.000000 0.000000
2052
root 1.649986 32.784135 1.224308 8.464173 2.701882 0.285392
Spine -9.530471 5.324203 -1.294548
Head -10.727721 -9.020502 11.745658
LeftShoulder -9.349348 21.145765 10.187959
LeftArm 19.034462 -3.208509 -61.312324
LeftForeArm 4.296423 -0.000000 17.778227
LeftHand -23.248962 -0.000000 -12.210060
LeftHandThumb1 -26.253704 0.000000 33.147579
RightShoulder -18.079005 12.225306 -17.802476
RightArm -9.719517 -3.308543 61.180933
RightForeArm -23.436334 0.000000 14.287559
RightHand -4.029914 0.000000 18.507956
RightHandThumb1 -24.326973 -0.000000 -32.862282
LeftUpLeg -3.053841 9.510685 3.161095
LeftLeg -3.087213 -0.000000 0.000000
LeftFoot -5.798488 -4.776126 -17.668496
LeftToeBase 8.592938 -0.000000 -0.000000
RightUpLeg -2.612074 -11.806032 -6.649502
RightLeg -0.463612 -0.000000 0.000000
RightFoot -5.004201 -1.952406 3.783946
RightToeBase -2.948767 -0.000000 0.000000
2053
root 1.647225 32.784966 1.221311 8.459905 2.657225 0.282021
Spine -9.524542 5.291548 -1.293570
Head -10.716658 -8.959051 11.774567
LeftShoulder -9.331539 21.085557 10.302532
LeftArm 19.124953 -3.714603 -60.807004
LeftForeArm 4.350117 -0.000000 17.690204
LeftHand -23.220956 -0.000000 -12.410010
LeftHandThumb1 -26.253704 0.000000 33.147579
RightShoulder -18.072224 12.251625 -17.909608
RightArm -9.488301 -3.017965 60.404589
RightForeArm -23.365399 -0.000000 14.291370
RightHand -4.021269 -0.000000 18.398106
RightHandThumb1 -24.326973 -0.000000 -32.862282
LeftUpLeg -3.051437 9.518565 3.165465
LeftLeg -3.081212 -0.000000 0.000000
LeftFoot -5.800106 -4.744102 -17.682064
LeftToeBase 8.595084 -0.000000 -0.000000
RightUpLeg -2.628325 -11.789067 -6.644852
RightLeg -0.454686 -0.000000 0.000000
RightFoot -4.991573 -1.922800 3.777865
RightToeBase -2.986595 -0.000000 0.000000
2054
root 1.642712 32.785535 1.219864 8.449646 2.603234 0.261081
Spine -9.513614 5.249844 -1.283012
Head -10.719556 -8.868504 11.821243
LeftShoulder -9.331828 21.050149 10.451730
LeftArm 19.228878 -4.292479 -60.376652
LeftForeArm 4.299118 -0.000000 17.634549
LeftHand -23.334558 -0.000000 -12.280796
LeftHandThumb1 -26.253704 0.000000 33.147579
RightShoulder -18.023203 12.415941 -18.031093
RightArm -9.425409 -2.715354 59.620174
RightForeArm -23.338814 0.000000 14.368672
RightHand -4.054708 -0.000000 18.290408
RightHandThumb1 -24.326973 -0.000000 -32.862282
LeftUpLeg -3.037776 9.540202 3.191201
LeftLeg -3.076710 -0.000000 0.000000
LeftFoot -5.817348 -4.714157 -17.674736
LeftToeBase 8.596562 -0.000000 -0.000000
RightUpLeg -2.637718 -11.773261 -6.618417
RightLeg -0.450541 -0.000000 0.000000
RightFoot -4.982714 -1.903581 3.767032
RightToeBase -2.934449 -0.000000 0.000000
2055
root 1.641789 32.786094 1.221154 8.421697 2.511873 0.258323
Spine -9.500532 5.254491 -1.284002
Head -10.674705 -8.824055 11.826892
LeftShoulder -9.312886 21.020187 10.578560
LeftArm 19.312257 -4.841077 -59.917109
LeftForeArm 4.393720 -0.000000 17.583393
LeftHand -23.236859 0.000000 -12.159868
LeftHandThumb1 -26.253704 0.000000 33.147579
RightShoulder -17.984720 12.470701 -18.144749
RightArm -9.243168 -2.356544 58.858051
RightForeArm -23.358919 -0.000000 14.440096
RightHand -4.186461 -0.000000 18.185390
RightHandThumb1 -24.326973 -0.000000 -32.862282
LeftUpLeg -2.986712 9.616802 3.190708
LeftLeg -3.091109 -0.000000 0.000000
LeftFoot -5.821327 -4.694305 -17.659332
LeftToeBase 8.558516 -0.000000 -0.000000
RightUpLeg -2.629187 -11.719369 -6.628099
RightLeg -0.446113 -0.000000 0.000000
RightFoot -4.974412 -1.860987 3.765730
RightToeBase -2.944411 -0.000000 0.000000
2056
root 1.639958 32.786345 1.220926 8.409053 2.431264 0.245368
Spine -9.501664 5.243381 -1.278670
Head -10.645568 -8.747115 11.849422
LeftShoulder -9.311435 21.009884 10.721429
LeftArm 19.419917 -5.339548 -59.465996
LeftForeArm 4.285243 0.000000 17.533634
LeftHand -23.328198 -0.000000 -11.982204
LeftHandThumb1 -26.253704 0.000000 33.147579
RightShoulder -17.940355 12.583989 -18.265436
RightArm -9.110536 -1.962177 58.089997
RightForeArm -23.442062 -0.000000 14.532223
RightHand -4.253907 -0.000000 18.111445
RightHandThumb1 -24.326973 -0.000000 -32.862282
LeftUpLeg -2.957134 9.677752 3.197748
LeftLeg -3.102946 -0.000000 0.000000
LeftFoot -5.836071 -4.669332 -17.642730
LeftToeBase 8.552100 -0.000000 -0.000000
RightUpLeg -2.636359 -11.668037 -6.620158
RightLeg -0.445011 -0.000000 0.000000
RightFoot -4.966966 -1.836555 3.754324
RightToeBase -2.929751 -0.000000 0.000000
2057
root 1.637400 32.786783 1.219189 8.403969 2.374258 0.235679
Spine -9.505004 5.219695 -1.281166
Head -10.630983 -8.696754 11.884269
LeftShoulder -9.287521 20.902231 10.886027
LeftArm 19.448083 -5.876245 -59.044155
LeftForeArm 4.305215 -0.000000 17.508695
LeftHand -23.364796 -0.000000 -11.786241
LeftHandThumb1 -26.253704 0.000000 33.147579
RightShoulder -17.897874 12.735729 -18.422277
RightArm -9.009717 -1.609617 57.372670
RightForeArm -23.603402 -0.000000 14.567524
RightHand -4.273540 -0.000000 18.079807
RightHandThumb1 -24.326973 -0.000000 -32.862282
LeftUpLeg -2.945578 9.716914 3.205896
LeftLeg -3.108098 -0.000000 0.000000
LeftFoot -5.833260 -4.642893 -17.635486
LeftToeBase 8.556633 -0.000000 -0.000000
RightUpLeg -2.650156 -11.655023 -6.609545
RightLeg -0.442529 -0.000000 0.000000
RightFoot -4.954663 -1.802204 3.728705
RightToeBase -2.912447 -0.000000 0.000000
2058
root 1.631298 32.787477 1.208087 8.425979 2.373663 0.205802
Spine -9.507377 5.136059 -1.247802
Head -10.645145 -8.629326 11.903329
LeftShoulder -9.272911 20.790272 11.024781
LeftArm 19.498325 -6.460357 -58.619820
LeftForeArm 4.425780 -0.000000 17.453184
LeftHand -23.267002 -0.000000 -11.628960
LeftHandThumb1 -26.253704 0.000000 33.147579
RightShoulder -17.846030 12.913586 -18.523173
RightArm -8.897088 -1.350756 56.593121
RightForeArm -23.616505 -0.000000 14.650560
RightHand -4.285283 -0.000000 18.058530
RightHandThumb1 -24.326973 -0.000000 -32.862282
LeftUpLeg -3.007705 9.671796 3.243211
LeftLeg -3.064469 -0.000000 0.000000
LeftFoot -5.865876 -4.617064 -17.665822
LeftToeBase 8.569268 -0.000000 -0.000000
RightUpLeg -2.704234 -11.667743 -6.559679
RightLeg -0.426493 -0.000000 0.000000
RightFoot -4.937080 -1.791934 3.700448
RightToeBase -2.945312 -0.000000 0.000000
2059
root 1.627501 32.788268 1.203682 8.420958 2.322030 0.194760
Spine -9.499881 5.107035 -1.254123
Head -10.643661 -8.580879 11.944422
LeftShoulder -9.259798 20.720192 11.172309
LeftArm 19.605876 -7.022467 -58.202376
LeftForeArm 4.390901 0.000000 17.363825
LeftHand -23.222058 0.000000 -11.196558
LeftHandThumb1 -26.253704 0.000000 33.147579
RightShoulder -17.794982 13.100046 -18.625483
RightArm -8.793083 -1.145703 55.849979
RightForeArm -23.596694 -0.000000 14.716778
RightHand -4.314959 0.000000 17.858543
RightHandThumb1 -24.326973 -0.000000 -32.862282
LeftUpLeg -3.004860 9.700635 3.255295
LeftLeg -3.061560 -0.000000 0.000000
LeftFoot -5.866984 -4.585010 -17.655249
LeftToeBase 8.547623 -0.000000 -0.000000
RightUpLeg -2.725864 -11.641575 -6.542943
RightLeg -0.416565 -0.000000 0.000000
RightFoot -4.926705 -1.777171 3.692733
RightToeBase -2.959704 -0.000000 0.000000
2060
root 1.623941 32.788651 1.199922 8.419324 2.281948 0.173677
Spine -9.507147 5.066882 -1.240262
Head -10.617458 -8.538735 11.960400
LeftShoulder -9.250944 20.638713 11.331070
LeftArm 19.683550 -7.447974 -57.767238
LeftForeArm 4.125494 -0.000000 17.308764
LeftHand -23.152237 0.000000 -11.331382
LeftHandThumb1 -26.253704 0.000000 33.147579
RightShoulder -17.740656 13.238978 -18.717707
RightArm -8.647730 -0.876476 55.102147
RightForeArm -23.607544 -0.000000 14.786690
RightHand -4.322443 0.000000 17.854201
RightHandThumb1 -24.326973 -0.000000 -32.862282
LeftUpLeg -3.005766 9.733450 3.275848
LeftLeg -3.057766 -0.000000 0.000000
LeftFoot -5.879653 -4.566399 -17.662284
LeftToeBase 8.569785 -0.000000 -0.000000
RightUpLeg -2.742886 -11.629428 -6.517818
RightLeg -0.412719 -0.000000 0.000000
RightFoot -4.914142 -1.746527 3.691231
RightToeBase -2.939971 -0.000000 0.000000
2061
root 1.620794 32.789096 1.196129 8.421339 2.238929 0.161701
Spine -9.515432 5.038044 -1.244119
Head -10.603724 -8.465516 12.021186
LeftShoulder -9.249761 20.573008 11.462432
LeftArm 19.803116 -8.010463 -57.336181
LeftForeArm 4.285187 -0.000000 17.245411
LeftHand -23.110641 -0.000000 -11.491744
LeftHandThumb1 -26.253704 0.000000 33.147579
RightShoulder -17.705421 13.402288 -18.803823
RightArm -8.494971 -0.711827 54.361483
RightForeArm -23.605497 -0.000000 14.834915
RightHand -4.322595 -0.000000 17.780840
RightHandThumb1 -24.326973 -0.000000 -32.862282
LeftUpLeg -3.011162 9.737207 3.288910
LeftLeg -3.052957 -0.000000 0.000000
LeftFoot -5.897235 -4.526458 -17.682107
LeftToeBase 8.591916 -0.000000 -0.000000
RightUpLeg -2.765006 -11.625776 -6.499578
RightLeg -0.409246 -0.000000 0.000000
RightFoot -4.900101 -1.716176 3.667843
RightToeBase -2.914476 -0.000000 0.000000
